<?xml version="1.0" encoding="UTF-8" standalone="no"?>
<!DOCTYPE svg PUBLIC "-//W3C//DTD SVG 1.1//EN" "http://www.w3.org/Graphics/SVG/1.1/DTD/svg11.dtd">
<svg width="100%" height="100%" viewBox="0 0 1024 412" version="1.1" xmlns="http://www.w3.org/2000/svg" xmlns:xlink="http://www.w3.org/1999/xlink" xml:space="preserve" xmlns:serif="http://www.serif.com/" style="fill-rule:evenodd;clip-rule:evenodd;stroke-linecap:square;stroke-miterlimit:20;">
    <g transform="matrix(1,0,0,1,-2818,-1354)">
        <g id="Brand-Mark" serif:id="Brand Mark" transform="matrix(0.667971,0,0,0.865546,935.657,182.05)">
            <rect x="2818" y="1354" width="1533" height="476" style="fill:none;"/>
            <g id="brand-mark" transform="matrix(1,0,0,1,2.99414,-13.8313)">
                <g id="word-mark">
                    <g transform="matrix(0.317408,0,0,0.244955,2052.88,527.539)">
                        <g transform="matrix(327.91,0,0,327.91,4403.87,4284)">
                            <path d="M0.421,0.01C0.35,0.01 0.285,-0.005 0.228,-0.037C0.171,-0.068 0.126,-0.111 0.093,-0.166C0.06,-0.221 0.044,-0.282 0.044,-0.35C0.044,-0.418 0.06,-0.48 0.093,-0.535C0.126,-0.59 0.171,-0.632 0.228,-0.664C0.285,-0.695 0.35,-0.71 0.421,-0.71C0.492,-0.71 0.557,-0.695 0.614,-0.664C0.671,-0.632 0.716,-0.59 0.749,-0.535C0.782,-0.48 0.798,-0.419 0.798,-0.35C0.798,-0.281 0.782,-0.22 0.749,-0.165C0.716,-0.11 0.671,-0.068 0.614,-0.037C0.557,-0.005 0.492,0.01 0.421,0.01ZM0.421,-0.104C0.468,-0.104 0.51,-0.115 0.547,-0.136C0.584,-0.157 0.614,-0.186 0.635,-0.224C0.656,-0.261 0.667,-0.303 0.667,-0.35C0.667,-0.397 0.656,-0.439 0.635,-0.477C0.614,-0.514 0.584,-0.544 0.547,-0.565C0.51,-0.586 0.468,-0.596 0.421,-0.596C0.374,-0.596 0.332,-0.586 0.295,-0.565C0.258,-0.544 0.228,-0.514 0.207,-0.477C0.186,-0.439 0.175,-0.397 0.175,-0.35C0.175,-0.303 0.186,-0.261 0.207,-0.224C0.228,-0.186 0.258,-0.157 0.295,-0.136C0.332,-0.115 0.374,-0.104 0.421,-0.104Z" style="fill-rule:nonzero;"/>
                        </g>
                        <g transform="matrix(327.91,0,0,327.91,4683.25,4284)">
                            <path d="M0.737,-0L0.736,-0.464L0.506,-0.08L0.448,-0.08L0.218,-0.458L0.218,-0L0.094,-0L0.094,-0.7L0.201,-0.7L0.479,-0.236L0.752,-0.7L0.859,-0.7L0.86,-0L0.737,-0Z" style="fill-rule:nonzero;"/>
                        </g>
                        <g transform="matrix(327.91,0,0,327.91,4999.68,4284)">
                            <path d="M0.716,-0.7L0.716,-0L0.609,-0L0.223,-0.474L0.223,-0L0.094,-0L0.094,-0.7L0.201,-0.7L0.587,-0.226L0.587,-0.7L0.716,-0.7Z" style="fill-rule:nonzero;"/>
                        </g>
                        <g transform="matrix(327.91,0,0,327.91,5268.57,4284)">
                            <rect x="0.094" y="-0.7" width="0.13" height="0.7" style="fill-rule:nonzero;"/>
                        </g>
                        <g transform="matrix(327.91,0,0,327.91,5376.45,4284)">
                            <path d="M0.203,0.01C0.158,0.01 0.117,0.001 0.08,-0.017C0.042,-0.034 0.011,-0.059 -0.013,-0.091L0.061,-0.18C0.1,-0.127 0.146,-0.1 0.2,-0.1C0.273,-0.1 0.309,-0.143 0.309,-0.229L0.309,-0.591L0.06,-0.591L0.06,-0.7L0.439,-0.7L0.439,-0.236C0.439,-0.154 0.419,-0.093 0.379,-0.052C0.339,-0.011 0.28,0.01 0.203,0.01Z" style="fill-rule:nonzero;"/>
                        </g>
                        <g transform="matrix(327.91,0,0,327.91,5547.62,4284)">
                            <path d="M0.548,-0.162L0.198,-0.162L0.129,-0L-0.005,-0L0.31,-0.7L0.438,-0.7L0.754,-0L0.618,-0L0.548,-0.162ZM0.505,-0.264L0.373,-0.57L0.242,-0.264L0.505,-0.264Z" style="fill-rule:nonzero;"/>
                        </g>
                        <g transform="matrix(327.91,0,0,327.91,5796.5,4284)">
                            <path d="M0.552,-0L0.409,-0.205C0.403,-0.204 0.394,-0.204 0.382,-0.204L0.224,-0.204L0.224,-0L0.094,-0L0.094,-0.7L0.382,-0.7C0.443,-0.7 0.496,-0.69 0.541,-0.67C0.586,-0.65 0.62,-0.621 0.644,-0.584C0.668,-0.547 0.68,-0.502 0.68,-0.451C0.68,-0.398 0.667,-0.353 0.642,-0.315C0.616,-0.277 0.579,-0.249 0.531,-0.23L0.692,-0L0.552,-0ZM0.549,-0.451C0.549,-0.496 0.534,-0.53 0.505,-0.554C0.476,-0.578 0.433,-0.59 0.376,-0.59L0.224,-0.59L0.224,-0.311L0.376,-0.311C0.433,-0.311 0.476,-0.323 0.505,-0.348C0.534,-0.372 0.549,-0.406 0.549,-0.451Z" style="fill-rule:nonzero;"/>
                        </g>
                    </g>
                    <g transform="matrix(0.317408,0,0,0.244955,2055.87,613.034)">
                        <g transform="matrix(327.91,0,0,327.91,4403.87,4284)">
                            <path d="M0.493,-0.561C0.472,-0.578 0.45,-0.591 0.429,-0.6C0.408,-0.608 0.387,-0.612 0.367,-0.612C0.342,-0.612 0.321,-0.606 0.305,-0.594C0.289,-0.582 0.281,-0.566 0.281,-0.547C0.281,-0.534 0.285,-0.523 0.293,-0.514C0.301,-0.505 0.312,-0.498 0.325,-0.492C0.338,-0.485 0.352,-0.48 0.369,-0.475C0.385,-0.47 0.401,-0.465 0.417,-0.46C0.481,-0.439 0.528,-0.41 0.558,-0.375C0.587,-0.339 0.602,-0.292 0.602,-0.235C0.602,-0.196 0.596,-0.161 0.583,-0.13C0.57,-0.099 0.551,-0.072 0.526,-0.05C0.501,-0.027 0.47,-0.01 0.434,0.003C0.397,0.015 0.356,0.021 0.31,0.021C0.215,0.021 0.126,-0.007 0.045,-0.064L0.129,-0.222C0.158,-0.196 0.187,-0.177 0.216,-0.164C0.245,-0.151 0.273,-0.145 0.301,-0.145C0.333,-0.145 0.357,-0.152 0.373,-0.167C0.388,-0.182 0.396,-0.198 0.396,-0.217C0.396,-0.228 0.394,-0.238 0.39,-0.247C0.386,-0.255 0.379,-0.263 0.37,-0.27C0.361,-0.277 0.349,-0.283 0.334,-0.289C0.319,-0.295 0.3,-0.302 0.279,-0.309C0.254,-0.317 0.229,-0.326 0.205,-0.336C0.18,-0.345 0.159,-0.358 0.14,-0.374C0.121,-0.39 0.105,-0.41 0.094,-0.435C0.082,-0.459 0.076,-0.49 0.076,-0.527C0.076,-0.564 0.082,-0.598 0.095,-0.629C0.107,-0.659 0.124,-0.685 0.147,-0.707C0.169,-0.728 0.196,-0.745 0.229,-0.757C0.261,-0.769 0.297,-0.775 0.337,-0.775C0.374,-0.775 0.413,-0.77 0.454,-0.76C0.495,-0.749 0.534,-0.734 0.571,-0.714L0.493,-0.561Z" style="fill-rule:nonzero;"/>
                        </g>
                        <g transform="matrix(327.91,0,0,327.91,4618.98,4284)">
                            <path d="M0.622,-0.502C0.577,-0.557 0.521,-0.585 0.454,-0.585C0.425,-0.585 0.398,-0.58 0.373,-0.569C0.347,-0.558 0.326,-0.544 0.308,-0.526C0.29,-0.507 0.276,-0.485 0.266,-0.46C0.255,-0.435 0.25,-0.407 0.25,-0.378C0.25,-0.348 0.255,-0.32 0.266,-0.295C0.276,-0.27 0.29,-0.248 0.309,-0.229C0.327,-0.21 0.348,-0.196 0.373,-0.185C0.398,-0.174 0.424,-0.169 0.453,-0.169C0.516,-0.169 0.572,-0.196 0.622,-0.249L0.622,-0.017L0.602,-0.01C0.572,0.001 0.544,0.009 0.518,0.014C0.492,0.019 0.466,0.021 0.441,0.021C0.389,0.021 0.339,0.011 0.292,-0.009C0.244,-0.028 0.202,-0.056 0.166,-0.092C0.129,-0.127 0.1,-0.169 0.078,-0.219C0.056,-0.268 0.045,-0.321 0.045,-0.379C0.045,-0.437 0.056,-0.49 0.078,-0.539C0.099,-0.587 0.128,-0.628 0.165,-0.664C0.201,-0.699 0.243,-0.726 0.291,-0.746C0.339,-0.765 0.389,-0.775 0.442,-0.775C0.472,-0.775 0.501,-0.772 0.531,-0.766C0.56,-0.759 0.59,-0.749 0.622,-0.736L0.622,-0.502Z" style="fill-rule:nonzero;"/>
                        </g>
                        <g transform="matrix(327.91,0,0,327.91,4840.97,4284)">
                            <rect x="0.079" y="-0.754" width="0.196" height="0.754" style="fill-rule:nonzero;"/>
                        </g>
                        <g transform="matrix(327.91,0,0,327.91,4960.33,4284)">
                            <path d="M0.508,-0.588L0.275,-0.588L0.275,-0.462L0.495,-0.462L0.495,-0.296L0.275,-0.296L0.275,-0.166L0.508,-0.166L0.508,-0L0.079,-0L0.079,-0.754L0.508,-0.754L0.508,-0.588Z" style="fill-rule:nonzero;"/>
                        </g>
                        <g transform="matrix(327.91,0,0,327.91,5150.52,4284)">
                            <path d="M0.079,-0L0.079,-0.754L0.275,-0.754L0.637,-0.293L0.637,-0.754L0.832,-0.754L0.832,-0L0.637,-0L0.275,-0.461L0.275,-0L0.079,-0Z" style="fill-rule:nonzero;"/>
                        </g>
                        <g transform="matrix(327.91,0,0,327.91,5455.8,4284)">
                            <path d="M0.622,-0.502C0.577,-0.557 0.521,-0.585 0.454,-0.585C0.425,-0.585 0.398,-0.58 0.373,-0.569C0.347,-0.558 0.326,-0.544 0.308,-0.526C0.29,-0.507 0.276,-0.485 0.266,-0.46C0.255,-0.435 0.25,-0.407 0.25,-0.378C0.25,-0.348 0.255,-0.32 0.266,-0.295C0.276,-0.27 0.29,-0.248 0.309,-0.229C0.327,-0.21 0.348,-0.196 0.373,-0.185C0.398,-0.174 0.424,-0.169 0.453,-0.169C0.516,-0.169 0.572,-0.196 0.622,-0.249L0.622,-0.017L0.602,-0.01C0.572,0.001 0.544,0.009 0.518,0.014C0.492,0.019 0.466,0.021 0.441,0.021C0.389,0.021 0.339,0.011 0.292,-0.009C0.244,-0.028 0.202,-0.056 0.166,-0.092C0.129,-0.127 0.1,-0.169 0.078,-0.219C0.056,-0.268 0.045,-0.321 0.045,-0.379C0.045,-0.437 0.056,-0.49 0.078,-0.539C0.099,-0.587 0.128,-0.628 0.165,-0.664C0.201,-0.699 0.243,-0.726 0.291,-0.746C0.339,-0.765 0.389,-0.775 0.442,-0.775C0.472,-0.775 0.501,-0.772 0.531,-0.766C0.56,-0.759 0.59,-0.749 0.622,-0.736L0.622,-0.502Z" style="fill-rule:nonzero;"/>
                        </g>
                        <g transform="matrix(327.91,0,0,327.91,5677.8,4284)">
                            <path d="M0.508,-0.588L0.275,-0.588L0.275,-0.462L0.495,-0.462L0.495,-0.296L0.275,-0.296L0.275,-0.166L0.508,-0.166L0.508,-0L0.079,-0L0.079,-0.754L0.508,-0.754L0.508,-0.588Z" style="fill-rule:nonzero;"/>
                        </g>
                    </g>
                </g>
                <g id="logo-mark" transform="matrix(13.5328,0,0,10.4437,2825.56,1355.18)">
                    <g transform="matrix(1,0,0,1,0.547805,-0.828152)">
                        <g transform="matrix(-0.0553125,-0.0958041,-0.0958041,0.0553125,95.502,77.3758)">
                            <path d="M674.048,202.5L738.881,165.124L803.785,202.597L739,240L674.048,202.5Z" style="stroke:white;stroke-width:2px;"/>
                        </g>
                        <g transform="matrix(0.0110594,0.0191554,-0.0191554,0.0110594,31.0398,1.3963)">
                            <path d="M803.785,202.403L738.952,239.835L738.952,239.972L674.048,202.5L739,165L803.785,202.403Z" style="fill:white;"/>
                        </g>
                    </g>
                    <g transform="matrix(-1,0,0,1,47.4522,-0.828152)">
                        <g transform="matrix(-0.0553125,-0.0958041,-0.0958041,0.0553125,95.502,77.3575)">
                            <path d="M674.048,202.5L738.881,165.124L803.785,202.597L739,240L674.048,202.5Z" style="stroke:white;stroke-width:2px;"/>
                        </g>
                        <g transform="matrix(0.0110594,0.0191554,-0.0191554,0.0110594,31.0398,1.3963)">
                            <path d="M803.785,202.403L738.952,239.835L738.952,239.972L674.048,202.5L739,165L803.785,202.403Z" style="fill:white;"/>
                        </g>
                    </g>
                    <g transform="matrix(0.110625,6.245e-17,6.93889e-18,0.110625,-57.7519,14.875)">
                        <path d="M803.785,202.403L738.952,239.835L738.952,239.972L674.048,202.5L739,165L803.785,202.403Z" style="stroke:white;stroke-width:2px;"/>
                    </g>
                    <g transform="matrix(-0.0221188,1.73472e-18,-3.46945e-18,0.0221188,40.2794,32.7004)">
                        <path d="M803.785,202.403L738.952,239.835L738.952,239.972L674.048,202.5L739,165L803.785,202.403Z" style="fill:white;"/>
                    </g>
                    <g transform="matrix(1,0,0,1,0.547805,-0.828152)">
                        <g transform="matrix(0.110625,0,0,0.110625,-58.2997,-10.8469)">
                            <path d="M803.785,202.403L738.952,239.835L738.952,239.972L674.048,202.5L739,165L803.785,202.403Z" style="stroke:white;stroke-width:2px;"/>
                        </g>
                        <g transform="matrix(0.0553125,-0.0958041,0.0958041,0.0553125,-33.2367,77.3575)">
                            <path d="M674.048,202.5L738.881,165.124L803.785,202.597L739,240L674.048,202.5Z" style="stroke:white;stroke-width:2px;"/>
                        </g>
                        <g transform="matrix(-0.0553125,-0.0958041,-0.0958041,0.0553125,80.1358,77.3575)">
                            <path d="M674.048,202.5L738.881,165.124L803.785,202.597L739,240L674.048,202.5Z" style="stroke:white;stroke-width:2px;"/>
                        </g>
                        <g transform="matrix(0.0221188,0,0,0.0221188,7.09901,7.0744)">
                            <path d="M803.785,202.403L738.952,239.835L738.952,239.972L674.048,202.5L739,165L803.785,202.403Z" style="fill:white;"/>
                        </g>
                    </g>
                    <g transform="matrix(1,0,0,1,-7.20659,12.4468)">
                        <g transform="matrix(0.110625,0,0,0.110625,-58.2997,-10.8469)">
                            <path d="M803.785,202.403L738.952,239.835L738.952,239.972L674.048,202.5L739,165L803.785,202.403Z" style="stroke:white;stroke-width:2px;"/>
                        </g>
                        <g transform="matrix(0.0553125,-0.0958041,0.0958041,0.0553125,-33.2367,77.3575)">
                            <path d="M674.048,202.5L738.881,165.124L803.785,202.597L739,240L674.048,202.5Z" style="stroke:white;stroke-width:2px;"/>
                        </g>
                        <g transform="matrix(-0.0553125,-0.0958041,-0.0958041,0.0553125,80.1358,77.3575)">
                            <path d="M674.048,202.5L738.881,165.124L803.785,202.597L739,240L674.048,202.5Z" style="stroke:white;stroke-width:2px;"/>
                        </g>
                        <g transform="matrix(-0.0110594,-0.0191554,-0.0191554,0.0110594,31.9103,29.6845)">
                            <path d="M674.048,202.5L738.881,165.124L803.785,202.597L739,240L674.048,202.5Z" style="fill:white;"/>
                        </g>
                    </g>
                    <g transform="matrix(1,0,0,1,8.28091,12.4468)">
                        <g transform="matrix(0.110625,0,0,0.110625,-58.2997,-10.8469)">
                            <path d="M803.785,202.403L738.952,239.835L738.952,239.972L674.048,202.5L739,165L803.785,202.403Z" style="stroke:white;stroke-width:2px;"/>
                        </g>
                        <g transform="matrix(0.0553125,-0.0958041,0.0958041,0.0553125,-33.2367,77.3575)">
                            <path d="M674.048,202.5L738.881,165.124L803.785,202.597L739,240L674.048,202.5Z" style="stroke:white;stroke-width:2px;"/>
                        </g>
                        <g transform="matrix(-0.0553125,-0.0958041,-0.0958041,0.0553125,80.1358,77.3575)">
                            <path d="M674.048,202.5L738.881,165.124L803.785,202.597L739,240L674.048,202.5Z" style="stroke:white;stroke-width:2px;"/>
                        </g>
                        <g transform="matrix(0.0110594,-0.0191554,0.0191554,0.0110594,14.9887,29.6845)">
                            <path d="M674.048,202.5L738.881,165.124L803.785,202.597L739,240L674.048,202.5Z" style="fill:white;"/>
                        </g>
                    </g>
                </g>
            </g>
        </g>
    </g>
</svg>
