<?xml version="1.0" encoding="UTF-8" standalone="no"?>
<!DOCTYPE svg PUBLIC "-//W3C//DTD SVG 1.1//EN" "http://www.w3.org/Graphics/SVG/1.1/DTD/svg11.dtd">
<svg width="100%" height="100%" viewBox="0 0 274 305" version="1.1" xmlns="http://www.w3.org/2000/svg" xmlns:xlink="http://www.w3.org/1999/xlink" xml:space="preserve" xmlns:serif="http://www.serif.com/" style="fill-rule:evenodd;clip-rule:evenodd;stroke-linecap:square;stroke-miterlimit:20;">
    <g transform="matrix(1,0,0,1,-57.8548,-40.4605)">
        <g transform="matrix(0.560322,0,0,0.726056,-1570.81,-973.332)">
            <g transform="matrix(13.5328,0,0,10.4437,2825.56,1355.18)">
                <g transform="matrix(1,0,0,1,0.547805,-0.828152)">
                    <g transform="matrix(-0.0553125,-0.0958041,-0.0958041,0.0553125,95.502,77.3758)">
                        <path d="M674.048,202.5L738.881,165.124L803.785,202.597L739,240L674.048,202.5Z" style="stroke:white;stroke-width:2.38px;"/>
                    </g>
                    <g transform="matrix(0.0110594,0.0191554,-0.0191554,0.0110594,31.0398,1.3963)">
                        <path d="M803.785,202.403L738.952,239.835L738.952,239.972L674.048,202.5L739,165L803.785,202.403Z" style="fill:white;"/>
                    </g>
                </g>
                <g transform="matrix(-1,0,0,1,47.4522,-0.828152)">
                    <g transform="matrix(-0.0553125,-0.0958041,-0.0958041,0.0553125,95.502,77.3575)">
                        <path d="M674.048,202.5L738.881,165.124L803.785,202.597L739,240L674.048,202.5Z" style="stroke:white;stroke-width:2.38px;"/>
                    </g>
                    <g transform="matrix(0.0110594,0.0191554,-0.0191554,0.0110594,31.0398,1.3963)">
                        <path d="M803.785,202.403L738.952,239.835L738.952,239.972L674.048,202.5L739,165L803.785,202.403Z" style="fill:white;"/>
                    </g>
                </g>
                <g transform="matrix(0.110625,6.245e-17,6.93889e-18,0.110625,-57.7519,14.875)">
                    <path d="M803.785,202.403L738.952,239.835L738.952,239.972L674.048,202.5L739,165L803.785,202.403Z" style="stroke:white;stroke-width:2.38px;"/>
                </g>
                <g transform="matrix(-0.0221188,1.73472e-18,-3.46945e-18,0.0221188,40.2794,32.7004)">
                    <path d="M803.785,202.403L738.952,239.835L738.952,239.972L674.048,202.5L739,165L803.785,202.403Z" style="fill:white;"/>
                </g>
                <g transform="matrix(1,0,0,1,0.547805,-0.828152)">
                    <g transform="matrix(0.110625,0,0,0.110625,-58.2997,-10.8469)">
                        <path d="M803.785,202.403L738.952,239.835L738.952,239.972L674.048,202.5L739,165L803.785,202.403Z" style="stroke:white;stroke-width:2.38px;"/>
                    </g>
                    <g transform="matrix(0.0553125,-0.0958041,0.0958041,0.0553125,-33.2367,77.3575)">
                        <path d="M674.048,202.5L738.881,165.124L803.785,202.597L739,240L674.048,202.5Z" style="stroke:white;stroke-width:2.38px;"/>
                    </g>
                    <g transform="matrix(-0.0553125,-0.0958041,-0.0958041,0.0553125,80.1358,77.3575)">
                        <path d="M674.048,202.5L738.881,165.124L803.785,202.597L739,240L674.048,202.5Z" style="stroke:white;stroke-width:2.38px;"/>
                    </g>
                    <g transform="matrix(0.0221188,0,0,0.0221188,7.09901,7.0744)">
                        <path d="M803.785,202.403L738.952,239.835L738.952,239.972L674.048,202.5L739,165L803.785,202.403Z" style="fill:white;"/>
                    </g>
                </g>
                <g transform="matrix(1,0,0,1,-7.20659,12.4468)">
                    <g transform="matrix(0.110625,0,0,0.110625,-58.2997,-10.8469)">
                        <path d="M803.785,202.403L738.952,239.835L738.952,239.972L674.048,202.5L739,165L803.785,202.403Z" style="stroke:white;stroke-width:2.38px;"/>
                    </g>
                    <g transform="matrix(0.0553125,-0.0958041,0.0958041,0.0553125,-33.2367,77.3575)">
                        <path d="M674.048,202.5L738.881,165.124L803.785,202.597L739,240L674.048,202.5Z" style="stroke:white;stroke-width:2.38px;"/>
                    </g>
                    <g transform="matrix(-0.0553125,-0.0958041,-0.0958041,0.0553125,80.1358,77.3575)">
                        <path d="M674.048,202.5L738.881,165.124L803.785,202.597L739,240L674.048,202.5Z" style="stroke:white;stroke-width:2.38px;"/>
                    </g>
                    <g transform="matrix(-0.0110594,-0.0191554,-0.0191554,0.0110594,31.9103,29.6845)">
                        <path d="M674.048,202.5L738.881,165.124L803.785,202.597L739,240L674.048,202.5Z" style="fill:white;"/>
                    </g>
                </g>
                <g transform="matrix(1,0,0,1,8.28091,12.4468)">
                    <g transform="matrix(0.110625,0,0,0.110625,-58.2997,-10.8469)">
                        <path d="M803.785,202.403L738.952,239.835L738.952,239.972L674.048,202.5L739,165L803.785,202.403Z" style="stroke:white;stroke-width:2.38px;"/>
                    </g>
                    <g transform="matrix(0.0553125,-0.0958041,0.0958041,0.0553125,-33.2367,77.3575)">
                        <path d="M674.048,202.5L738.881,165.124L803.785,202.597L739,240L674.048,202.5Z" style="stroke:white;stroke-width:2.38px;"/>
                    </g>
                    <g transform="matrix(-0.0553125,-0.0958041,-0.0958041,0.0553125,80.1358,77.3575)">
                        <path d="M674.048,202.5L738.881,165.124L803.785,202.597L739,240L674.048,202.5Z" style="stroke:white;stroke-width:2.38px;"/>
                    </g>
                    <g transform="matrix(0.0110594,-0.0191554,0.0191554,0.0110594,14.9887,29.6845)">
                        <path d="M674.048,202.5L738.881,165.124L803.785,202.597L739,240L674.048,202.5Z" style="fill:white;"/>
                    </g>
                </g>
            </g>
        </g>
    </g>
</svg>
